<svg xmlns="http://www.w3.org/2000/svg" width="30" height="28" viewBox="0 0 30 28" fill="none">
  <path d="M7.77423 22.2986C5.78272 22.2986 4.01125 20.9999 3.36799 19.0665L3.32448 18.9208C3.17278 18.4088 3.10923 17.9783 3.10923 17.5475C3.10923 16.1104 1.07709 15.8178 0.671581 17.1964L0.0913301 19.1691C-0.296812 20.6782 0.58767 22.2427 2.07168 22.6596L21.3077 27.9063C21.5478 27.9696 21.7879 28 22.0243 28C23.2633 28 24.3953 27.1625 24.7126 25.9283C25.2693 24.1254 23.9214 22.2986 22.0345 22.2986H7.77423Z" fill="#53AA51"/>
  <path d="M12.0834 8.90909C13.4623 8.90909 14.5833 7.76745 14.5833 6.36364C14.5833 4.95983 13.4623 3.81818 12.0834 3.81818C10.7046 3.81818 9.58333 4.95983 9.58333 6.36364C9.58333 7.76745 10.7046 8.90909 12.0834 8.90909Z" fill="#53AA51"/>
  <path d="M26.8749 0H8.12491C6.40258 0 5 1.42808 5 3.18195V17.1817C5 18.9356 6.40258 20.3636 8.12491 20.3636H26.8749C28.5974 20.3636 30 18.9356 30 17.1817V3.18195C30 1.42808 28.5974 0 26.8749 0ZM8.12491 2.54551H26.8749C27.22 2.54551 27.4999 2.83052 27.4999 3.18195V6.08503C27.4999 8.17193 24.8951 9.12224 23.5513 7.52561C23.1324 7.0255 22.5261 6.7582 21.8749 6.74306C21.2274 6.74679 20.62 7.03949 20.205 7.54612L16.9276 11.5513C16.1986 12.4423 14.8577 12.5039 14.05 11.6835C13.1951 10.8131 11.8037 10.8131 10.95 11.6835C9.68675 12.9693 7.50007 12.0749 7.50007 10.2724V3.18195C7.50007 2.83052 7.77999 2.54551 8.12491 2.54551Z" fill="#53AA51"/>
</svg>