<svg xmlns="http://www.w3.org/2000/svg" width="131" height="169" viewBox="0 0 131 169" fill="none">
  <path d="M37.8333 93.2311H93.0833H37.8333ZM65.4583 65.5618V120.9V65.5618ZM111.5 167.016H19.4167C14.5323 167.016 9.84791 165.073 6.39412 161.613C2.94032 158.154 1 153.462 1 148.57V19.4462C1 14.554 2.94032 9.86211 6.39412 6.40277C9.84791 2.94344 14.5323 1 19.4167 1H70.8544C73.2964 1.00052 75.6382 1.97258 77.3647 3.70237L127.219 53.6363C128.946 55.3656 129.916 57.7111 129.917 60.1571V148.57C129.917 153.462 127.976 158.154 124.523 161.613C121.069 165.073 116.384 167.016 111.5 167.016Z" stroke="#227447" stroke-width="2" stroke-linecap="round" stroke-linejoin="round"/>
</svg>