<svg xmlns="http://www.w3.org/2000/svg" width="20" height="20" viewBox="0 0 20 20" fill="none">
  <path fill-rule="evenodd" clip-rule="evenodd" d="M1.66797 2.49935C1.66797 2.03911 2.04106 1.66602 2.5013 1.66602H8.33464C8.79487 1.66602 9.16797 2.03911 9.16797 2.49935V8.33268C9.16797 8.79292 8.79487 9.16602 8.33464 9.16602H2.5013C2.04106 9.16602 1.66797 8.79292 1.66797 8.33268V2.49935ZM3.33464 3.33268V7.49935H7.5013V3.33268H3.33464Z" fill="white"/>
  <path fill-rule="evenodd" clip-rule="evenodd" d="M10.832 2.49935C10.832 2.03911 11.2051 1.66602 11.6654 1.66602H17.4987C17.9589 1.66602 18.332 2.03911 18.332 2.49935V8.33268C18.332 8.79292 17.9589 9.16602 17.4987 9.16602H11.6654C11.2051 9.16602 10.832 8.79292 10.832 8.33268V2.49935ZM12.4987 3.33268V7.49935H16.6654V3.33268H12.4987Z" fill="white"/>
  <path fill-rule="evenodd" clip-rule="evenodd" d="M10.832 11.6673C10.832 11.2071 11.2051 10.834 11.6654 10.834H17.4987C17.9589 10.834 18.332 11.2071 18.332 11.6673V17.5007C18.332 17.9609 17.9589 18.334 17.4987 18.334H11.6654C11.2051 18.334 10.832 17.9609 10.832 17.5007V11.6673ZM12.4987 12.5007V16.6673H16.6654V12.5007H12.4987Z" fill="white"/>
  <path fill-rule="evenodd" clip-rule="evenodd" d="M1.66797 11.6673C1.66797 11.2071 2.04106 10.834 2.5013 10.834H8.33464C8.79487 10.834 9.16797 11.2071 9.16797 11.6673V17.5007C9.16797 17.9609 8.79487 18.334 8.33464 18.334H2.5013C2.04106 18.334 1.66797 17.9609 1.66797 17.5007V11.6673ZM3.33464 12.5007V16.6673H7.5013V12.5007H3.33464Z" fill="white"/>
</svg>