<svg xmlns="http://www.w3.org/2000/svg" width="19" height="19" viewBox="0 0 19 19" fill="none">
  <path fill-rule="evenodd" clip-rule="evenodd" d="M9.16667 1.66667C5.02453 1.66667 1.66667 5.02453 1.66667 9.16667C1.66667 13.3088 5.02453 16.6667 9.16667 16.6667C13.3088 16.6667 16.6667 13.3088 16.6667 9.16667C16.6667 5.02453 13.3088 1.66667 9.16667 1.66667ZM0 9.16667C0 4.10406 4.10406 0 9.16667 0C14.2293 0 18.3333 4.10406 18.3333 9.16667C18.3333 14.2293 14.2293 18.3333 9.16667 18.3333C4.10406 18.3333 0 14.2293 0 9.16667Z" fill="#9E9E9E"/>
  <path fill-rule="evenodd" clip-rule="evenodd" d="M9.16797 5.83268C8.70773 5.83268 8.33464 6.20578 8.33464 6.66602C8.33464 7.12625 7.96154 7.49935 7.5013 7.49935C7.04106 7.49935 6.66797 7.12625 6.66797 6.66602C6.66797 5.2853 7.78726 4.16602 9.16797 4.16602C10.5487 4.16602 11.668 5.2853 11.668 6.66602C11.668 7.16246 11.5224 7.62745 11.2713 8.01761C11.1207 8.25171 10.9461 8.47302 10.7905 8.66631C10.7614 8.70246 10.7331 8.73757 10.7054 8.77185C10.5767 8.93118 10.4623 9.07277 10.3563 9.2184C10.0929 9.58042 10.0013 9.81353 10.0013 9.99935V10.416C10.0013 10.8763 9.62821 11.2493 9.16797 11.2493C8.70773 11.2493 8.33464 10.8763 8.33464 10.416V9.99935C8.33464 9.26469 8.69527 8.6685 9.00864 8.23782C9.14185 8.05474 9.28808 7.87388 9.41735 7.71399C9.44299 7.68228 9.46796 7.6514 9.49202 7.62149C9.64618 7.4299 9.77136 7.26868 9.86977 7.11574C9.95296 6.98646 10.0013 6.83316 10.0013 6.66602C10.0013 6.20578 9.62821 5.83268 9.16797 5.83268Z" fill="#9E9E9E"/>
  <path fill-rule="evenodd" clip-rule="evenodd" d="M8.32812 13.3333C8.32812 12.8731 8.70122 12.5 9.16146 12.5H9.16894C9.62918 12.5 10.0023 12.8731 10.0023 13.3333C10.0023 13.7936 9.62918 14.1667 9.16894 14.1667H9.16146C8.70122 14.1667 8.32812 13.7936 8.32812 13.3333Z" fill="#9E9E9E"/>
</svg>