<svg xmlns="http://www.w3.org/2000/svg" width="14" height="14" viewBox="0 0 14 14" fill="none">
<path d="M9.1123 2.625C9.43885 2.62509 9.75396 2.76483 9.96973 3.00391L10.6924 3.79199H12.542C13.1835 3.79199 13.7088 4.31649 13.709 4.95801V11.958C13.709 12.5997 13.1837 13.125 12.542 13.125H3.20898C2.56732 13.125 2.04199 12.5997 2.04199 11.958V5.96191C2.21688 6.061 2.40934 6.12494 2.625 6.125C3.26667 6.125 3.79199 5.59967 3.79199 4.95801V4.375H4.375C5.01667 4.375 5.54199 3.84967 5.54199 3.20801C5.54193 2.99235 5.47799 2.79988 5.37891 2.625H9.1123ZM7.875 5.54199C6.26526 5.54217 4.95916 6.84827 4.95898 8.45801C4.95898 10.0679 6.26515 11.3748 7.875 11.375C9.485 11.375 10.792 10.068 10.792 8.45801C10.7918 6.84816 9.48489 5.54199 7.875 5.54199ZM7.875 6.70801C8.50008 6.70801 9.07797 7.04176 9.39062 7.58301C9.70321 8.12441 9.70315 8.79158 9.39062 9.33301C9.07802 9.87446 8.50021 10.208 7.875 10.208C7.24991 10.2079 6.67193 9.87437 6.35938 9.33301C6.04701 8.79163 6.04685 8.12432 6.35938 7.58301C6.67194 7.04169 7.24994 6.70812 7.875 6.70801ZM2.625 0.875C2.94572 0.875 3.20881 1.13732 3.20898 1.45801V2.625H4.375C4.69572 2.625 4.95881 2.88732 4.95898 3.20801C4.95898 3.52884 4.69583 3.79199 4.375 3.79199H3.20898V4.95801C3.20898 5.27884 2.94583 5.54199 2.625 5.54199C2.30431 5.54181 2.04199 5.27873 2.04199 4.95801V3.79199H0.875C0.554315 3.79181 0.291992 3.52873 0.291992 3.20801C0.29217 2.88743 0.554423 2.62518 0.875 2.625H2.04199V1.45801C2.04217 1.13743 2.30442 0.875178 2.625 0.875Z" fill="#F7F8F9"/>
</svg>