<svg width="62" height="72" viewBox="0 0 62 72" fill="none" xmlns="http://www.w3.org/2000/svg">
<path d="M47.2642 44.1127C47.2439 44.1044 47.2236 44.0969 47.203 44.0899C45.2188 43.3529 43.6379 43.1134 43.4337 43.0662C43.2959 42.6204 43.0643 42.1981 42.738 41.8319C41.1615 40.063 39.2705 39.0891 38.2473 38.6542V37.3641C40.4821 35.7579 42.0488 33.6508 42.7051 30.4501H43.9574C45.9056 30.4501 47.4907 28.8651 47.4907 26.9169V24.7874C47.4907 23.2057 46.4459 21.8633 45.0077 21.4143V18.3267C45.435 18.038 45.7294 17.5846 45.8159 17.0756L46.5882 12.5341L51.2878 10.7501V12.2908C50.426 12.4161 49.7362 13.1047 49.633 13.9929L49.0766 18.7908C48.9431 19.9439 49.844 20.9643 51.0127 20.9643H53.6719C54.8329 20.9643 55.7428 19.9516 55.608 18.7905L55.0516 13.9929C54.9485 13.1049 54.2588 12.4161 53.3969 12.2908V8.98119C53.3969 8.97993 53.397 8.9788 53.397 8.97754C53.3969 8.38733 53.0402 7.87068 52.4886 7.66143L46.7179 5.47091C46.173 5.26391 45.5642 5.53813 45.3575 6.08263C45.1507 6.62727 45.4247 7.23632 45.9692 7.44304L50.013 8.97796L45.7491 10.5966C45.5941 10.4978 45.423 10.4194 45.2371 10.3678C35.4608 7.65664 25.9564 7.65693 16.181 10.3678C15.9951 10.4192 15.8238 10.4978 15.6689 10.5966L11.405 8.97796L28.3656 2.53972C29.8765 1.96597 31.5413 1.96583 33.0528 2.53972L41.3536 5.69071C41.8985 5.89785 42.5071 5.62349 42.714 5.07899C42.9207 4.53435 42.6468 3.9253 42.1023 3.71858L33.8015 0.567738C31.8071 -0.189246 29.611 -0.189246 27.6169 0.567738L8.92983 7.66128C8.37788 7.87068 8.02125 8.38733 8.02125 8.97754C8.02111 9.56774 8.37759 10.0847 8.92969 10.2943L14.8302 12.5341L15.6026 17.0754C15.6891 17.5845 15.9836 18.038 16.4108 18.3266V21.4134C14.9738 21.8617 13.9278 23.2047 13.9278 24.7873V26.9168C13.9278 28.8649 15.5128 30.45 17.4611 30.45H18.7137C19.3161 33.4702 20.7577 35.5506 22.9133 37.1738V38.6542C21.89 39.089 19.999 40.0631 18.4227 41.8319C18.0965 42.1979 17.8649 42.6202 17.727 43.066C17.6766 43.0777 15.5922 43.4194 13.8961 44.1127C5.66803 47.1979 0 55.1332 0 64.1592V66.619C0 69.5861 2.41397 72 5.38102 72H55.7796C58.7467 72 61.1606 69.5861 61.1606 66.619V64.1592C61.1606 55.1329 55.4925 47.1976 47.2642 44.1127ZM52.9729 14.378L53.4921 18.855H51.1927L51.7119 14.378H52.9729ZM38.7607 41.2802C39.518 41.7316 40.3927 42.371 41.163 43.2353C41.5343 43.6521 41.5732 44.2625 41.2737 44.7127C41.2734 44.7133 41.2732 44.7139 41.2727 44.7144C41.2701 44.7184 41.2675 44.7223 41.265 44.7264L37.1114 50.9285C37.1112 50.9288 37.1109 50.9291 37.1108 50.9293C36.7532 51.4633 36.0461 51.6146 35.5016 51.2742C34.497 50.6464 32.9581 49.685 32.3439 49.3012L37.1249 45.0713C38.2216 44.1007 38.8011 42.6973 38.7607 41.2802ZM35.4319 53.4913C35.0862 54.0328 34.584 54.8197 33.8548 55.9627L33.177 54.0043L34.0279 52.8404C34.2585 52.967 34.6795 53.326 35.4319 53.4913ZM36.4698 40.4328C36.8845 41.5023 36.5861 42.7315 35.727 43.4914L30.5803 48.0448L25.4337 43.4914C24.5746 42.7315 24.2761 41.5024 24.6909 40.433C24.848 39.9454 25.0227 39.7324 25.0227 39.3801V38.4854C28.4588 40.199 32.5332 40.3078 36.1378 38.6083V39.3801C36.1378 39.6502 36.2228 39.7888 36.4698 40.4328ZM30.5803 50.6865L32.2341 51.7198L31.4641 52.7728H29.6965L28.9266 51.7198L30.5803 50.6865ZM29.9122 54.8822H31.2486L32.4076 58.231C32.1207 58.6807 31.8128 59.1634 31.4807 59.6838C31.0621 60.3455 30.1025 60.3515 29.6781 59.6804C29.3468 59.1613 29.0396 58.6798 28.7533 58.231L29.9122 54.8822ZM42.8982 21.2541H41.6973C41.0788 21.2541 40.5129 20.7996 40.5129 20.1413V17.9227C41.3063 18.0789 42.1013 18.2537 42.8982 18.4476V21.2541ZM45.3812 24.7874V26.9169C45.3812 27.702 44.7424 28.3408 43.9573 28.3408H42.9678C43.0051 27.6153 42.9749 28.5642 42.9861 23.3635H43.9529C43.9536 23.3635 43.9543 23.3633 43.9552 23.3633C43.956 23.3633 43.9566 23.3635 43.9574 23.3635C44.7424 23.3635 45.3812 24.0023 45.3812 24.7874ZM44.4804 12.3471L43.7757 16.4904C35.0204 14.2991 26.4682 14.2812 17.6425 16.4903L16.9379 12.3471C26.2022 9.81186 35.2156 9.81186 44.4804 12.3471ZM17.4611 28.3409C16.676 28.3409 16.0372 27.7022 16.0372 26.9171V24.7876C16.0372 24.0025 16.676 23.3636 17.4611 23.3636H17.4655H18.4361C18.4523 28.4368 18.4189 27.5386 18.459 28.3409H17.4611ZM18.5202 21.2541V18.4475C19.3171 18.2536 20.112 18.0786 20.9055 17.9226C20.904 20.2894 20.9085 20.1509 20.9015 20.2427C20.8569 20.8099 20.3383 21.2541 19.7212 21.2541C19.6993 21.2541 18.4403 21.2541 18.5202 21.2541ZM20.5487 27.8503L20.5455 23.2573C21.8735 22.9194 22.8956 21.7903 23.0043 20.4087C23.0228 20.1742 23.0113 20.2641 23.0148 17.5513C28.1618 16.7528 33.2565 16.7528 38.4037 17.5514C38.4072 20.2334 38.3957 20.1751 38.4142 20.4082C38.5231 21.7914 39.547 22.9213 40.8769 23.2581C40.8773 29.442 40.8649 27.5229 40.8776 27.8986C40.5406 40.9552 20.8409 40.9921 20.5487 27.8503ZM19.9976 43.2353C20.7678 42.3709 21.6426 41.7315 22.3999 41.2801C22.3597 42.697 22.939 44.1007 24.036 45.0713L28.817 49.3012C28.1715 49.7017 27.3146 50.2358 25.6593 51.2742C25.1149 51.6145 24.4081 51.4633 24.0504 50.9298L19.8959 44.7264C19.8932 44.7223 19.8906 44.7184 19.8879 44.7143C19.8876 44.7139 19.8873 44.7133 19.887 44.7129C19.5936 44.2719 19.6193 43.6599 19.9976 43.2353ZM27.9837 54.0044L27.3059 55.9629C26.5764 54.8197 26.0743 54.0328 25.7286 53.4913C26.4795 53.3263 26.8941 52.9714 27.1327 52.8407L27.9837 54.0044ZM59.0512 66.619C59.0512 68.4231 57.5837 69.8907 55.7796 69.8907H50.3051V62.6507C50.3051 62.0681 49.833 61.596 49.2504 61.596C48.6678 61.596 48.1957 62.0681 48.1957 62.6507V69.8907H12.9649V62.6507C12.9649 62.0681 12.4928 61.596 11.9102 61.596C11.3276 61.596 10.8555 62.0681 10.8555 62.6507V69.8907H5.38102C3.57694 69.8907 2.10938 68.4231 2.10938 66.619V64.1592C2.10938 56.3054 6.86995 49.3678 13.8712 46.3939L17.0378 51.4152C17.2384 51.7333 17.5808 51.9074 17.931 51.9074C18.1232 51.9074 18.318 51.8548 18.4926 51.7447C18.9852 51.4341 19.1329 50.7827 18.8221 50.2899L15.904 45.6627C16.9023 45.3657 17.587 45.2467 17.7864 45.203C18.1666 46.2409 17.6628 44.77 27.8976 60.8116C29.1457 62.785 32.019 62.7787 33.2612 60.815C41.2788 48.2473 43.0111 45.8999 43.0252 45.8886C43.1682 45.6742 43.2976 45.4125 43.3744 45.2028C43.5909 45.2502 44.227 45.3561 45.2568 45.6624L35.0069 61.9154C32.9692 65.1464 28.1908 65.1455 26.1539 61.9154L21.4532 54.4616C21.1425 53.9688 20.4912 53.8214 19.9984 54.1321C19.5058 54.4427 19.3582 55.0941 19.6689 55.5868L24.3696 63.0407C27.235 67.584 33.9256 67.5841 36.7909 63.0407L47.2892 46.3935C54.2905 49.3674 59.0511 56.305 59.0511 64.1589V66.619H59.0512Z" fill="#003875"/>
</svg>
