<svg xmlns="http://www.w3.org/2000/svg" width="13" height="13" viewBox="0 0 13 13" fill="none">
  <path d="M5.95903 1.58221H2.54714C1.41653 1.58221 0.5 2.49872 0.5 3.62929V10.4529C0.5 11.5835 1.41653 12.5 2.54714 12.5H9.37093C10.5015 12.5 11.4181 11.5835 11.4181 10.4529L11.4181 7.04111M3.9119 9.08815L6.39461 8.58791C6.52641 8.56136 6.64743 8.49646 6.74247 8.40137L12.3003 2.8407C12.5667 2.57409 12.5666 2.14194 12.2999 1.87556L11.1225 0.699585C10.8559 0.433313 10.424 0.433495 10.1576 0.69999L4.59926 6.26123C4.5044 6.35614 4.43963 6.47691 4.41305 6.60843L3.9119 9.08815Z" stroke="#227447" stroke-linecap="round" stroke-linejoin="round"/>
</svg>