<svg width="24" height="24" viewBox="0 0 24 24" fill="none" xmlns="http://www.w3.org/2000/svg">
<path d="M3.21973 3.21973C3.51262 2.92683 3.98738 2.92683 4.28027 3.21973L20.7803 19.7197C21.0732 20.0126 21.0732 20.4874 20.7803 20.7803C20.4874 21.0732 20.0126 21.0732 19.7197 20.7803L16.3691 17.4297C15.0719 18.2646 13.5639 18.7246 12.0127 18.75H12C9.07537 18.75 6.82864 17.0799 5.35938 15.5127C4.61803 14.7219 4.05169 13.9343 3.6709 13.3447C3.48012 13.0493 3.33421 12.8017 3.23535 12.626C3.18589 12.538 3.14816 12.4673 3.12207 12.418C3.10912 12.3935 3.09892 12.3742 3.0918 12.3604L3.08301 12.3438L3.08105 12.3389L3.08008 12.3369C3.08217 12.3357 3.11837 12.3158 3.75 12L3.0791 12.3359C2.97014 12.118 2.97372 11.8602 3.08887 11.6455C3.93753 10.064 5.07011 8.65506 6.42676 7.4873L3.21973 4.28027C2.92683 3.98738 2.92683 3.51262 3.21973 3.21973ZM7.49023 8.55078C6.33765 9.52583 5.36153 10.6942 4.60645 12.0029C4.6882 12.1441 4.79695 12.3232 4.93066 12.5303C5.27642 13.0656 5.78837 13.7782 6.45312 14.4873C7.79518 15.9188 9.6716 17.2477 11.9941 17.25C13.1531 17.23 14.2826 16.9139 15.2783 16.3389L13.5371 14.5977C13.418 14.6723 13.294 14.7394 13.165 14.7969C12.7971 14.9608 12.3998 15.0485 11.9971 15.0557C11.5943 15.0628 11.1939 14.9888 10.8203 14.8379C10.4468 14.687 10.1071 14.4626 9.82227 14.1777C9.53741 13.8929 9.31299 13.5532 9.16211 13.1797C9.01125 12.8062 8.93723 12.4057 8.94434 12.0029C8.95149 11.6002 9.03921 11.2028 9.20312 10.835C9.26058 10.706 9.32771 10.5819 9.40234 10.4629L7.49023 8.55078ZM12.001 5.25C14.9251 5.25042 17.1715 6.92029 18.6406 8.4873C19.382 9.27807 19.9483 10.0657 20.3291 10.6553C20.5199 10.9507 20.6658 11.1983 20.7646 11.374L20.9209 11.665C21.0295 11.8825 21.0257 12.1391 20.9111 12.3535C20.4313 13.2511 19.8594 14.0962 19.2041 14.875C18.9375 15.1918 18.4644 15.233 18.1475 14.9668C17.8305 14.7001 17.789 14.2261 18.0557 13.9092C18.5574 13.3129 19.0055 12.6733 19.3936 11.998C19.3118 11.8567 19.2033 11.6771 19.0693 11.4697C18.7236 10.9344 18.2116 10.2218 17.5469 9.5127C16.2037 8.07993 14.3253 6.75004 12 6.75H11.998C11.526 6.7489 11.0553 6.80257 10.5957 6.91016C10.1924 7.00451 9.78873 6.75387 9.69434 6.35059C9.60021 5.94746 9.85081 5.54463 10.2539 5.4502C10.8265 5.31617 11.4129 5.24869 12.001 5.25ZM10.5205 11.582C10.4725 11.7261 10.4471 11.8769 10.4443 12.0293C10.4408 12.2307 10.4773 12.4314 10.5527 12.6182C10.6282 12.8049 10.7404 12.9748 10.8828 13.1172C11.0252 13.2596 11.1951 13.3718 11.3818 13.4473C11.5686 13.5227 11.7693 13.5592 11.9707 13.5557C12.1231 13.5529 12.2739 13.5275 12.418 13.4795L10.5205 11.582Z" fill="#717171"/>
</svg>

