<svg xmlns="http://www.w3.org/2000/svg" width="24" height="24" viewBox="0 0 24 24" fill="none">
<path d="M12 5C14.9246 5 17.1713 6.6701 18.6406 8.2373C19.3819 9.02804 19.9483 9.81569 20.3291 10.4053C20.52 10.7008 20.6658 10.9492 20.7646 11.125C20.814 11.2128 20.8519 11.2828 20.8779 11.332C20.8909 11.3565 20.9011 11.3758 20.9082 11.3896L20.917 11.4062L20.9209 11.4141C21.0264 11.6252 21.0265 11.8748 20.9209 12.0859L20.25 11.75C20.877 12.0635 20.9174 12.0852 20.9199 12.0869V12.0889L20.917 12.0938L20.9082 12.1104C20.9011 12.1242 20.8909 12.1435 20.8779 12.168C20.8518 12.2173 20.8141 12.288 20.7646 12.376C20.6658 12.5517 20.5199 12.7994 20.3291 13.0947C19.9483 13.6843 19.382 14.4719 18.6406 15.2627C17.1713 16.8299 14.9246 18.5 12 18.5C9.07538 18.5 6.82864 16.8299 5.35938 15.2627C4.61803 14.4719 4.05169 13.6843 3.6709 13.0947C3.48013 12.7993 3.33421 12.5517 3.23535 12.376C3.18589 12.288 3.14816 12.2173 3.12207 12.168C3.10912 12.1435 3.09893 12.1242 3.0918 12.1104L3.08301 12.0938L3.08105 12.0889L3.0791 12.0859C2.97359 11.8749 2.9737 11.6261 3.0791 11.415L3.75 11.75C3.0792 11.4146 3.07994 11.4134 3.08008 11.4131L3.08105 11.4121L3.08301 11.4062L3.0918 11.3896C3.09893 11.3758 3.10912 11.3565 3.12207 11.332C3.14812 11.2828 3.186 11.2127 3.23535 11.125C3.33422 10.9492 3.48003 10.7008 3.6709 10.4053C4.0517 9.81568 4.61804 9.02807 5.35938 8.2373C6.82864 6.67009 9.07538 5.00003 12 5ZM12 6.5C9.67465 6.50003 7.79636 7.82991 6.45312 9.2627C5.78834 9.9718 5.27643 10.6843 4.93066 11.2197C4.79613 11.4281 4.6874 11.6084 4.60547 11.75C4.68739 11.8916 4.79615 12.072 4.93066 12.2803C5.27642 12.8156 5.78836 13.5282 6.45312 14.2373C7.79636 15.6701 9.67464 17 12 17C14.3254 17 16.2036 15.6701 17.5469 14.2373C18.2117 13.5282 18.7236 12.8157 19.0693 12.2803C19.2039 12.072 19.3126 11.8916 19.3945 11.75C19.3126 11.6084 19.2039 11.4281 19.0693 11.2197C18.7236 10.6843 18.2117 9.9718 17.5469 9.2627C16.2036 7.82993 14.3253 6.5 12 6.5ZM12 8.75C13.6568 8.75 14.9999 10.0932 15 11.75C15 13.4069 13.6569 14.75 12 14.75C10.3432 14.7499 9 13.4068 9 11.75C9.00006 10.0932 10.3433 8.75009 12 8.75ZM12 10.25C11.1717 10.2501 10.5001 10.9217 10.5 11.75C10.5 12.5784 11.1716 13.2499 12 13.25C12.8284 13.25 13.5 12.5784 13.5 11.75C13.4999 10.9216 12.8284 10.25 12 10.25Z" fill="#717171"/>
</svg>