<svg xmlns="http://www.w3.org/2000/svg" width="24" height="30" viewBox="0 0 24 30" fill="none">
  <path d="M1.45833 24.7917C1.04514 24.7917 0.698542 24.6517 0.418542 24.3717C0.139514 24.0926 0 23.7465 0 23.3333C0 22.9201 0.139514 22.574 0.418542 22.295C0.698542 22.015 1.04514 21.875 1.45833 21.875H2.91667V11.6667C2.91667 9.64931 3.52431 7.85653 4.73958 6.28833C5.95486 4.72111 7.53472 3.69444 9.47917 3.20833V2.1875C9.47917 1.57986 9.69208 1.06361 10.1179 0.63875C10.5428 0.212917 11.059 0 11.6667 0C12.2743 0 12.7906 0.212917 13.2154 0.63875C13.6413 1.06361 13.8542 1.57986 13.8542 2.1875V3.20833C15.7986 3.69444 17.3785 4.72111 18.5938 6.28833C19.809 7.85653 20.4167 9.64931 20.4167 11.6667V21.875H21.875C22.2882 21.875 22.6343 22.015 22.9133 22.295C23.1933 22.574 23.3333 22.9201 23.3333 23.3333C23.3333 23.7465 23.1933 24.0926 22.9133 24.3717C22.6343 24.6517 22.2882 24.7917 21.875 24.7917H1.45833ZM11.6667 29.1667C10.8646 29.1667 10.1782 28.8813 9.6075 28.3106C9.03583 27.739 8.75 27.0521 8.75 26.25H14.5833C14.5833 27.0521 14.298 27.739 13.7273 28.3106C13.1556 28.8813 12.4688 29.1667 11.6667 29.1667ZM5.83333 21.875H17.5V11.6667C17.5 10.0625 16.9288 8.68924 15.7865 7.54688C14.6441 6.40451 13.2708 5.83333 11.6667 5.83333C10.0625 5.83333 8.68924 6.40451 7.54688 7.54688C6.40451 8.68924 5.83333 10.0625 5.83333 11.6667V21.875Z" fill="#555555"/>
</svg>