<svg width="50" height="36" viewBox="0 0 50 36" fill="none" xmlns="http://www.w3.org/2000/svg">
<path d="M8.43023 2.60208C9.68992 1.08197 10.9981 0.232491 12.3547 0.0536502C13.8081 -0.125185 15.0194 0.143071 15.9884 0.858417C17.0543 1.48435 17.6357 2.46796 17.7326 3.80924C17.9264 5.0611 17.345 6.44709 15.9884 7.96721C14.7287 9.39791 13.7112 10.8286 12.936 12.2593C12.2578 13.6006 11.7733 14.9419 11.4826 16.2832C14.5833 16.5514 17.0543 17.5797 18.8953 19.3681C20.7364 21.0671 21.657 23.3472 21.657 26.2086C21.657 29.07 20.688 31.4396 18.75 33.3174C16.812 35.1058 14.1957 36 10.9012 36C7.50969 36 4.84496 34.927 2.90698 32.7809C0.968992 30.6349 0 27.6393 0 23.7943C0 20.5753 0.532946 17.2221 1.59884 13.7347C2.76163 10.158 5.03876 6.44709 8.43023 2.60208ZM36.7733 2.60208C38.0329 1.08197 39.3411 0.232491 40.6977 0.0536502C42.1512 -0.125185 43.3624 0.143071 44.3314 0.858417C45.3973 1.48435 45.9787 2.46796 46.0756 3.80924C46.2694 5.0611 45.688 6.44709 44.3314 7.96721C43.0717 9.39791 42.0543 10.8286 41.2791 12.2593C40.6008 13.6006 40.1163 14.9419 39.8256 16.2832C42.9264 16.5514 45.3973 17.5797 47.2384 19.3681C49.0795 21.0671 50 23.3472 50 26.2086C50 29.07 49.031 31.4396 47.093 33.3174C45.155 35.1058 42.5388 36 39.2442 36C35.8527 36 33.188 34.927 31.25 32.7809C29.312 30.6349 28.343 27.6393 28.343 23.7943C28.343 20.5753 28.876 17.2221 29.9419 13.7347C31.1046 10.158 33.3818 6.44709 36.7733 2.60208Z" fill="#135CE7" fill-opacity="0.2"/>
</svg>
