<svg width="60" height="90" viewBox="0 0 60 90" fill="none" xmlns="http://www.w3.org/2000/svg">
<g clip-path="url(#clip0_34_202)">
<path d="M27.2351 59.8607C29.4329 59.9686 31.6284 59.9576 33.8261 59.832C33.8327 61.7481 33.7364 63.7258 33.8852 65.6353C33.824 70.1832 33.848 74.7487 33.8918 79.2966C33.9159 81.684 34.1304 84.1947 33.929 86.5666C33.8787 87.1591 33.7648 87.7824 33.4387 88.2911C32.9462 89.0619 31.9392 89.8834 31.0045 89.9825C30.0086 90.0882 29.0695 89.6918 28.3537 89.0003C27.7036 88.3726 27.4321 87.6656 27.3095 86.7803C26.9024 83.8621 27.1782 80.6357 27.1848 77.6757L27.2373 59.8607H27.2351Z" fill="#434E64"/>
<path d="M27.2352 59.8612C27.1542 59.8326 27.0754 59.8017 26.9944 59.7775C25.09 59.2093 23.0214 59.0683 21.0666 58.4715C20.6245 58.3349 20.1845 58.1896 19.7489 58.0332C19.3133 57.8769 18.8798 57.7095 18.4508 57.5333C18.0218 57.3571 17.5971 57.1699 17.179 56.9739C16.7587 56.7779 16.345 56.5709 15.9335 56.355C15.5219 56.1392 15.117 55.9145 14.7186 55.6789C14.318 55.4432 13.924 55.201 13.5343 54.9477C13.1447 54.6944 12.7616 54.4323 12.3851 54.1615C12.0086 53.8906 11.6387 53.6109 11.2753 53.3223C10.9119 53.0338 10.5551 52.7365 10.2049 52.4326C9.85466 52.1287 9.51099 51.8137 9.17608 51.4944C8.84116 51.1728 8.51282 50.8447 8.19323 50.5077C7.87145 50.1707 7.56061 49.8272 7.25634 49.477C6.95207 49.1268 6.65437 48.7678 6.36761 48.4044C6.07867 48.0389 5.80067 47.6689 5.52923 47.29C5.2578 46.9112 4.99512 46.528 4.74339 46.1382C4.48947 45.7484 4.24649 45.352 4.01008 44.9511C3.7671 44.5283 3.53507 44.0988 3.31398 43.6649C3.0929 43.2311 2.88057 42.7906 2.68137 42.3457C2.47998 41.9008 2.29173 41.4515 2.11223 40.9979C1.93274 40.5442 1.76637 40.0861 1.60877 39.6236C1.45116 39.1611 1.30669 38.6964 1.17316 38.2273C1.03963 37.7582 0.91486 37.2847 0.803222 36.8089C0.691584 36.3332 0.59089 35.8553 0.503331 35.3752C0.415772 34.8951 0.339157 34.4128 0.273488 33.9282C0.207818 33.4437 0.155283 32.9592 0.113692 32.4725C0.0721015 31.9858 0.0414558 31.499 0.0239439 31.0101C0.00643206 30.5234 -0.000134888 30.0344 0.00424308 29.5455C0.00862104 29.0566 0.0261329 28.5699 0.0545897 28.0809C0.0830464 27.5942 0.124637 27.1075 0.177173 26.6208C0.229708 26.1362 0.293189 25.6517 0.369803 25.1694C0.446417 24.6871 0.531788 24.207 0.632481 23.729C0.730985 23.2511 0.842623 22.7754 0.963017 22.3019C2.97469 14.7257 7.71822 7.9116 14.55 4.0156C14.9922 3.76453 15.4388 3.52667 15.8919 3.29763C16.345 3.06858 16.8047 2.85275 17.2687 2.64572C17.7328 2.4387 18.2013 2.24489 18.6741 2.0643C19.1469 1.8815 19.6263 1.71192 20.1079 1.55114C20.5894 1.39257 21.0754 1.24501 21.5635 1.11067C22.0517 0.976323 22.5442 0.852991 23.0389 0.742872C23.5336 0.632753 24.0305 0.533646 24.5296 0.447754C25.0287 0.361861 25.5322 0.28698 26.0356 0.227516C26.5391 0.16585 27.0426 0.117398 27.5482 0.0821597C28.0539 0.0469217 28.5595 0.0226956 29.0674 0.0116837C29.5752 0.000671836 30.0809 0.000671836 30.5887 0.0160885C31.0944 0.0293027 31.6022 0.0557312 32.1079 0.0953739C32.6135 0.135017 33.117 0.185671 33.6204 0.24954C34.1239 0.313409 34.6252 0.38829 35.1243 0.478587C35.6234 0.566682 36.1203 0.667991 36.615 0.780312C37.1097 0.892633 37.6 1.01817 38.0882 1.15472C45.6642 3.29322 52.1239 7.91821 55.9984 14.8755C56.2501 15.3182 56.4887 15.7653 56.7186 16.219C56.9484 16.6726 57.1651 17.1329 57.3709 17.5976C57.5767 18.0623 57.7715 18.5314 57.9532 19.0072C58.1349 19.4829 58.3056 19.9608 58.4654 20.4453C58.6252 20.9276 58.7718 21.4144 58.9054 21.9055C59.0411 22.3966 59.1637 22.8899 59.2731 23.3877C59.3826 23.8854 59.4811 24.3832 59.5664 24.8853C59.6518 25.3874 59.7241 25.8896 59.7853 26.3961C59.8466 26.9027 59.8948 27.4092 59.9298 27.9158C59.9648 28.4245 59.9867 28.9311 59.9977 29.4398C60.0086 29.9486 60.0042 30.4573 59.9889 30.9661C59.9736 31.4748 59.9451 31.9835 59.9057 32.4901C59.8642 32.9966 59.8116 33.5032 59.7459 34.0075C59.6803 34.5119 59.6015 35.0162 59.5117 35.5162C59.422 36.0161 59.3191 36.516 59.2031 37.0116C59.0871 37.5071 58.9601 38.0004 58.82 38.4894C56.6836 45.8717 51.4847 52.5009 44.7295 56.1524C41.3454 57.9826 37.716 59.0155 33.9641 59.7511C33.9772 61.7046 34.0692 63.6955 33.8875 65.6424C33.7386 63.7352 33.835 61.7552 33.8284 59.8392C31.6328 59.9669 29.4351 59.9757 27.2374 59.8678L27.2352 59.8612Z" fill="#5ABCC4"/>
<path d="M27.1806 4.20881C33.15 3.27501 40.5115 5.54125 45.3142 9.08707C45.6557 9.34255 45.9884 9.60683 46.3167 9.87992C46.6451 10.153 46.9647 10.4327 47.2799 10.7212C47.5929 11.0097 47.9016 11.3049 48.2014 11.6088C48.5013 11.9127 48.7947 12.221 49.0792 12.5404C49.3638 12.8575 49.6418 13.1813 49.911 13.5138C50.1803 13.8442 50.4408 14.1812 50.6947 14.5247C50.9486 14.8683 51.1916 15.2185 51.428 15.5731C51.6644 15.9298 51.8921 16.291 52.111 16.6566C52.3299 17.0244 52.54 17.3944 52.7392 17.7732C52.9406 18.1498 53.131 18.5308 53.3149 18.9185C53.4966 19.3039 53.6695 19.6959 53.8337 20.0901C53.9979 20.4844 54.1511 20.883 54.2956 21.286C54.44 21.6891 54.5736 22.0943 54.6983 22.5017C54.8231 22.9114 54.9369 23.3232 55.042 23.7373C55.1471 24.1513 55.2412 24.5676 55.3266 24.9882C55.4119 25.4067 55.4864 25.8295 55.5499 26.2502C55.609 26.6598 55.6571 27.0717 55.6965 27.4857C55.7359 27.8997 55.7644 28.3116 55.7819 28.7278C55.8016 29.1419 55.8103 29.5559 55.8082 29.9722C55.8082 30.3862 55.795 30.8025 55.7731 31.2165C55.7512 31.6306 55.7206 32.0446 55.679 32.4565C55.6374 32.8683 55.5871 33.2801 55.5258 33.692C55.4645 34.1016 55.3944 34.5113 55.3134 34.9187C55.2325 35.3262 55.1427 35.7292 55.042 36.1322C54.9413 36.5353 54.8319 36.9339 54.7115 37.3325C54.5911 37.7289 54.4619 38.1232 54.324 38.513C54.1861 38.9028 54.0373 39.2904 53.8797 39.6736C53.7221 40.0569 53.5557 40.4357 53.3806 40.8123C53.2055 41.1867 53.0194 41.5589 52.8268 41.9245C52.6319 42.2901 52.4306 42.6512 52.2204 43.008C52.0103 43.3648 51.7892 43.715 51.5615 44.0608C51.3339 44.4065 51.0975 44.7457 50.8523 45.0805C46.6954 50.7075 40.7086 54.2754 33.8395 55.2841C33.7673 55.2973 33.6972 55.3127 33.625 55.3237C26.9683 56.3897 20.0949 54.4802 14.6925 50.4851C9.49586 46.6419 5.74176 40.6537 4.76985 34.2228C4.6998 33.7867 4.64289 33.3506 4.59473 32.9124C4.54657 32.4741 4.50936 32.0358 4.48309 31.5953C4.45683 31.1549 4.4415 30.7144 4.43713 30.2739C4.43275 29.8334 4.43713 29.393 4.45464 28.9525C4.47215 28.512 4.49842 28.0715 4.53782 27.6333C4.57503 27.195 4.62538 26.7567 4.68448 26.3206C4.74358 25.8846 4.81363 25.4485 4.89462 25.0168C4.97562 24.583 5.06755 24.1535 5.16825 23.724C5.26894 23.2946 5.38277 22.8695 5.50535 22.4467C5.62793 22.0238 5.75927 21.6032 5.90374 21.1869C6.04603 20.7707 6.19926 20.3566 6.36343 19.9492C6.5276 19.5395 6.70053 19.1365 6.88222 18.7357C7.06609 18.3348 7.25872 17.9406 7.46011 17.5486C7.6615 17.1588 7.87383 16.7712 8.09491 16.3923C8.316 16.0113 8.54584 15.6369 8.78663 15.2669C9.02523 14.8969 9.27478 14.5335 9.53089 14.1768C13.8957 8.21053 20.0358 5.27696 27.185 4.21762L27.1806 4.20881Z" fill="#E0EBED"/>
<path d="M42.2888 18.7734C43.4489 18.9628 44.4011 19.1919 45.3052 19.9869C46.1107 20.6939 46.6229 21.6321 46.6514 22.7179C46.6864 23.9799 46.3384 24.6097 45.5087 25.5193C43.3854 27.845 41.0148 29.9901 38.817 32.2498C36.2253 34.9146 33.5153 38.2909 30.5383 40.4756C29.9341 40.9205 29.2315 41.0879 28.4894 41.0901C25.3263 41.0923 20.7273 35.1173 18.5098 32.8885C17.0607 31.4657 14.4974 29.8602 14.3026 27.6644C14.1954 26.4443 14.712 25.2903 15.5328 24.4137C16.3274 23.5658 17.4745 22.9381 18.6499 22.9183C21.2461 22.8743 26.7667 29.4572 28.6733 31.3644C31.1972 28.8471 39.6773 19.7072 42.2888 18.7734Z" fill="#227447"/>
</g>
<defs>
<clipPath id="clip0_34_202">
<rect width="60" height="90" fill="white"/>
</clipPath>
</defs>
</svg>
