<svg width="60" height="75" viewBox="0 0 60 75" fill="none" xmlns="http://www.w3.org/2000/svg">
<path d="M0.251354 70.9506C-0.203253 68.2604 0.096421 65.1171 0.102537 62.3795L0.171849 44.7449L0.149425 17.3692C0.149425 12.5367 0.0148771 7.64658 0.253393 2.82236C0.296204 1.94691 0.34513 1.33719 1.04845 0.741885C1.57848 0.292833 2.4877 0.266054 3.17063 0.212498C8.67484 -0.207717 14.4216 0.123923 19.9462 0.130103C25.3139 0.136282 30.9771 -0.207717 36.3141 0.32991C34.2083 0.465862 32.0942 0.389647 29.9863 0.348449L30.1617 7.01832C21.8136 7.46531 13.3269 7.17487 4.96255 7.17075C5.18272 25.3244 5.25407 43.476 5.17661 61.6297C9.58405 62.0005 14.1892 61.7183 18.6252 61.7141L40.9662 61.6894C47.0331 61.6894 53.1672 61.6153 59.2178 62.0973C59.7172 62.1364 59.4991 62.1632 59.968 61.984C60.0027 63.9985 60.0088 66.0152 59.9884 68.0297L0.245239 68.3366C0.259509 69.1997 0.324744 70.0917 0.251354 70.9527V70.9506Z" fill="#27C3C4"/>
<path d="M36.316 0.331393L50.4659 0.345812C52.8266 0.341693 55.5318 0.0491907 57.8457 0.475584C58.3064 0.560039 58.551 0.731009 58.8751 1.05853C59.3664 1.55908 59.605 1.96487 59.6967 2.66317C59.925 4.40376 59.7803 6.31945 59.7803 8.07652V18.7879C59.8516 33.1761 59.6355 47.6055 59.9678 61.9855C59.499 62.1647 59.7191 62.14 59.2176 62.0988C53.165 61.6168 47.0329 61.6909 40.9661 61.6909L18.6251 61.7156C14.1891 61.7197 9.58594 62.0019 5.17645 61.6312C5.25392 43.4775 5.18461 25.3238 4.9624 7.17223C13.3247 7.17635 21.8134 7.4668 30.1615 7.0198L29.9862 0.349932C32.0961 0.39113 34.2081 0.467345 36.314 0.331393H36.316Z" fill="#E0EBED"/>
<path d="M13.1105 36.0953C15.0329 34.0416 17.0797 32.3937 19.5321 31.0156C17.838 33.0549 16.4232 35.1436 14.5233 37.0181C13.2349 38.2252 10.6357 40.1347 9.83245 41.5787L9.87526 42.0153L9.41454 42.1472C8.94974 41.867 8.54202 41.5457 8.12207 41.2038C9.60821 39.2963 11.3369 37.7205 13.1105 36.0932V36.0953Z" fill="#88B081"/>
<path d="M13.2351 53.8566C13.5307 53.5414 13.6836 53.2736 13.8732 52.8946C14.8435 50.9563 17.0615 49.1106 18.7128 47.7676L20.8166 49.9964C18.6945 52.5218 14.8232 56.7754 12.0772 58.4748L10.3647 56.9484C11.2903 55.8917 12.3035 54.9092 13.2392 53.8566H13.2351Z" fill="#FEFEFE"/>
<path d="M20.6189 12.4707C21.4955 13.0536 22.2131 14.0341 22.9144 14.819C21.681 16.1476 20.0991 17.2352 18.7393 18.4402C16.6987 20.2467 14.7906 22.1933 12.8927 24.1522L12.4931 24.3047C11.7959 23.8494 11.2679 23.0379 10.748 22.389C14.0832 19.1282 17.2573 15.7068 20.6189 12.4707Z" fill="#FEFEFE"/>
<path d="M19.5342 31.0159L20.2457 30.6328C21.3363 30.9727 22.0743 32.1777 22.7695 33.0449C21.4811 34.4827 20.1091 35.7763 18.6882 37.0761C17.6179 38.0339 16.5232 38.9732 15.5345 40.0197C14.3643 41.1629 13.1901 42.508 11.8935 43.4926C11.2677 42.955 10.65 42.3185 9.87533 42.0157L9.83252 41.579C10.6357 40.135 13.237 38.2255 14.5233 37.0184C16.4213 35.1439 17.8361 33.0532 19.5322 31.0159H19.5342Z" fill="#FEFEFE"/>
<path d="M50.2273 51.3288L52.586 51.2773V54.0376L31.7821 54.0129C31.0869 54.0335 30.2755 54.1591 29.6578 53.8007C29.2359 53.1086 29.4234 52.1322 29.4621 51.3474L50.2293 51.3309L50.2273 51.3288Z" fill="#88B081"/>
<path d="M52.6046 44.3301C52.6515 45.2467 52.623 46.1757 52.6271 47.0944C44.8539 47.2077 37.0664 47.1088 29.2912 47.0882L29.2627 44.3857L52.6046 44.3301Z" fill="#88B081"/>
<path d="M47.8117 30.1689L52.5351 30.1133L52.5514 33.0383L34.3182 33.0053C32.7077 33.0156 31.1033 32.9683 29.4928 32.9044L29.4888 30.1936L47.8096 30.1689H47.8117Z" fill="#88B081"/>
<path d="M18.6883 37.0781C30.0066 37.3027 41.3575 37.1255 52.6799 37.1028L52.5983 40.1123L26.8773 40.0402C23.2181 40.032 19.1531 40.4316 15.5366 40.0217C16.5253 38.9753 17.6201 38.036 18.6903 37.0781H18.6883Z" fill="#88B081"/>
<path d="M52.8022 7.03224C53.2528 7.03636 53.6197 6.94985 54.005 7.20733C54.1701 11.2076 53.9928 15.2161 54.1192 19.2164L54.0111 19.5707C53.1957 20.0898 32.8545 19.7623 30.3899 19.7643C30.4082 15.5807 30.4816 11.3497 30.2329 7.17437C37.7309 7.18879 45.3185 7.39478 52.8022 7.03224Z" fill="#88B081"/>
<path d="M36.3158 0.331393L50.4657 0.345812C52.8264 0.341693 55.5317 0.0491907 57.8455 0.475584C58.3062 0.560039 58.5508 0.731009 58.875 1.05853C59.3663 1.55908 59.6048 1.96487 59.6965 2.66317C59.9248 4.40376 59.7801 6.31945 59.7801 8.07652V18.7879C59.8514 33.1761 59.6354 47.6055 59.9677 61.9855C59.4988 62.1647 59.7189 62.14 59.2175 62.0988C53.1649 61.6168 47.0327 61.6909 40.9659 61.6909L18.6249 61.7156C14.1889 61.7197 9.58576 62.0019 5.17627 61.6312C8.87632 61.2563 12.6498 61.6209 16.3722 61.3242C14.2582 61.1842 6.95393 61.7671 5.55545 61.1038C5.46779 60.4632 5.40459 59.9524 5.54322 59.3076C9.12503 58.8874 12.6131 59.2788 16.1827 59.1593C18.3436 59.0872 20.4943 58.873 22.6593 58.8174C33.1703 58.5475 43.7323 58.6485 54.2473 58.6794L54.2127 32.6034C54.2005 28.1603 54.3799 23.6512 54.1189 19.2163C53.9905 15.216 54.1678 11.2075 54.0048 7.20725C53.6215 6.94977 53.2546 7.03628 52.802 7.03216C45.3203 6.64697 37.6613 6.9992 30.1634 7.01774L29.988 0.347872C32.098 0.38907 34.21 0.465285 36.3158 0.329333V0.331393Z" fill="#5ABCC4"/>
<path d="M0.245117 68.3342C0.259387 69.1972 0.324622 70.0892 0.251233 70.9502C0.607987 72.2829 1.05444 73.2799 2.28575 73.9947C3.10527 74.4705 3.96963 74.6497 4.8972 74.7507C7.38021 75.0267 10.061 74.8331 12.5664 74.8289C16.505 74.8207 20.4639 74.8907 24.4005 74.7836C25.3892 74.7115 26.4003 74.7568 27.3911 74.7568L31.2236 74.7919C31.2236 74.7919 31.2236 74.8083 31.2236 74.8145H31.4397C31.4397 74.8145 31.4397 74.8001 31.4397 74.7939L47.4244 74.8866C50.0746 74.9052 52.9775 75.1812 55.589 74.8042C56.5777 74.66 57.332 74.5076 58.0842 73.8093C59.817 72.2026 59.8639 70.2478 59.9883 68.0293L0.245117 68.3362V68.3342Z" fill="#5ABCC4"/>
</svg>
