<svg width="80" height="68" viewBox="0 0 80 68" fill="none" xmlns="http://www.w3.org/2000/svg">
<path d="M13.8578 8.60676C13.8247 6.69831 13.2042 2.26716 14.6397 0.862118C15.1382 0.373734 15.6905 0.185894 16.4104 0.191529C16.9544 0.195286 17.5894 0.330531 17.97 0.708089C18.3858 1.11946 18.7085 1.71867 19.0167 2.20705C18.8822 4.33904 18.8098 6.47102 18.8016 8.60676C18.7643 9.81082 18.6775 11.0299 18.7602 12.234C18.7126 13.6672 18.8243 15.1924 17.608 16.2763C17.2191 16.6219 16.6896 16.8642 16.1332 16.8173C15.6429 16.7759 15.2044 16.5562 14.8714 16.2331C13.6592 15.0647 13.8392 13.6089 13.8599 12.1269L13.833 9.07073L13.8599 8.60676H13.8578Z" fill="#C6C3BC"/>
<path d="M60.0168 8.60243C60.1905 6.56812 59.3755 1.65047 61.2206 0.371278C61.6509 0.0726118 62.2156 -0.0739034 62.7513 0.0369222C63.5394 0.200343 64.1083 0.730052 64.4413 1.37622C65.3597 3.16446 64.7682 6.39719 64.8178 8.42023C68.1419 8.39768 74.8791 7.99571 77.8577 8.48973C73.5283 8.61746 69.1844 8.56674 64.853 8.57238C64.8261 9.79897 64.7826 11.0274 64.8116 12.2559C64.8799 13.5069 65.0515 14.6603 64.3627 15.8005C64.0462 16.3227 63.5498 16.8787 62.863 16.9839C62.2652 17.0778 61.6799 16.7641 61.2682 16.394C59.8947 15.1599 59.9878 13.738 59.9526 12.1169L60.0188 8.60243H60.0168Z" fill="#C6C3BC"/>
<path d="M64.8535 8.57094C69.185 8.56531 73.5289 8.61603 77.8583 8.48829C78.4995 8.75315 79.1739 8.98044 79.5379 9.5665C79.8999 10.1469 79.9103 11.0392 79.9351 11.6966C80.0799 15.5642 79.8999 19.4769 79.8937 23.3502L79.873 47.1383L79.9102 58.6717C79.9247 61.4085 80.2371 64.459 79.6 67.147C79.2008 67.5396 78.8718 67.7913 78.274 67.8495C74.9458 68.1689 70.4592 67.8571 67.0192 67.8533L42.5693 67.8364L17.7471 67.8552C13.4549 67.8702 8.87731 68.2046 4.62443 67.8082C3.49502 67.703 2.58694 67.3499 1.74298 66.6492C0.251582 65.4114 0.108854 64.2261 0.0488666 62.4886C-0.0835186 58.6341 0.0923055 54.727 0.117128 50.8688L0.137813 31.2714L0.123333 18.1095C0.121265 16.0244 -0.0917927 13.7365 0.164704 11.6703C0.25365 10.9584 0.657011 10.1131 1.22999 9.61158C3.1351 7.94356 11.0823 8.58222 13.8583 8.60851L13.8314 9.07248L13.8583 12.1286C13.8376 13.6107 13.6577 15.0665 14.8698 16.2348C15.2028 16.556 15.6434 16.7777 16.1316 16.819C16.688 16.866 17.2176 16.6237 17.6065 16.278C18.8227 15.1942 18.7131 13.6689 18.7586 12.2357C18.6759 11.0317 18.7628 9.81257 18.8 8.60851L38.3165 8.59724C45.548 8.59724 52.7878 8.5315 60.0173 8.60476L59.9511 12.1192C59.9863 13.7422 59.8932 15.1641 61.2667 16.3964C61.6763 16.7645 62.2617 17.0782 62.8615 16.9862C63.5483 16.8791 64.0468 16.3231 64.3612 15.8028C65.05 14.6645 64.8783 13.5093 64.8101 12.2582C64.7832 11.0317 64.8245 9.8013 64.8514 8.5747L64.8535 8.57094Z" fill="#5ABCC4"/>
<path d="M59.9532 12.1152C59.9883 13.7381 59.8952 15.16 61.2687 16.3923C61.6783 16.7604 62.2637 17.0741 62.8636 16.9821C63.5503 16.875 64.0488 16.319 64.3632 15.7987C65.0521 14.6604 64.8804 13.5052 64.8121 12.2542C65.5651 12.6204 66.3366 12.9792 66.9158 13.5653C67.4309 14.0894 67.6625 14.7074 67.6067 15.4099C67.526 16.4317 67.0172 17.4724 66.1525 18.1411C65.05 18.9939 63.4531 19.2061 62.0548 19.0427C60.5716 18.8699 59.1423 18.2162 58.2446 17.1061C57.7088 16.443 57.3861 15.5808 57.593 14.7599C57.8908 13.5709 58.8879 12.7651 59.9532 12.1133V12.1152Z" fill="#3A4249"/>
<path d="M18.7998 8.60502L38.3162 8.59375C38.1218 8.8154 38.0639 8.94877 38.0432 9.23616C37.6667 14.7324 38.3969 20.2755 37.7908 25.7943L4.33047 25.7229L4.35736 48.0533C4.34702 51.8552 4.49596 55.7322 4.24153 59.5229C3.71819 55.2589 4.11328 50.4295 4.10294 46.1092C4.08846 39.578 3.83817 33.0656 3.97469 26.5325C3.98296 26.1963 3.98503 25.892 4.04088 25.5595C5.92944 24.562 16.6609 26.2751 19.7678 25.4017C20.0636 23.0875 19.8733 20.5742 19.8671 18.2375C18.7687 18.8705 17.6435 19.2518 16.3279 19.2424C14.8344 19.2311 13.2913 18.7916 12.257 17.7735C11.4007 16.9301 10.8711 15.4537 11.0635 14.3116C11.2311 13.3104 12.2591 12.9028 12.9769 12.2679C13.4485 11.8509 13.523 11.4189 13.5064 10.8384C13.4878 10.1885 13.6223 9.68886 13.8291 9.06899L13.856 12.1251C13.8353 13.6072 13.6554 15.063 14.8675 16.2313C15.2005 16.5525 15.6411 16.7742 16.1293 16.8155C16.6857 16.8625 17.2153 16.6202 17.6042 16.2745C18.8204 15.1907 18.7108 13.6654 18.7563 12.2322C18.6736 11.0282 18.7605 9.80908 18.7977 8.60502H18.7998Z" fill="#27C3C4"/>
<path d="M13.858 12.125C13.8373 13.6071 13.6574 15.0628 14.8695 16.2312C15.2026 16.5524 15.6432 16.774 16.1313 16.8154C16.6878 16.8623 17.2173 16.62 17.6062 16.2744C18.8225 15.1906 18.7128 13.6653 18.7583 12.2321C19.3603 12.5345 19.9726 12.8501 20.4318 13.3272C20.9944 13.9114 21.313 14.6947 21.2302 15.4742C21.1351 16.3833 20.5145 17.1986 19.7636 17.7752C19.6209 17.8842 19.472 17.9856 19.3189 18.0814C19.1638 18.1772 19.0066 18.2655 18.8411 18.3463C18.6777 18.427 18.5081 18.5003 18.3364 18.566C18.1647 18.6318 17.9889 18.69 17.811 18.7389C17.6331 18.7877 17.451 18.829 17.269 18.8628C17.0849 18.8966 16.9008 18.9211 16.7167 18.9361C16.5305 18.953 16.3444 18.9605 16.1582 18.9586C15.9721 18.9586 15.7859 18.9492 15.5997 18.9304C14.3276 18.814 13.1589 18.2617 12.4018 17.315C11.7792 16.5355 11.2724 15.3784 11.5247 14.4091C11.8102 13.3103 12.8941 12.7054 13.8601 12.125H13.858Z" fill="#3A4249"/>
<path d="M4.33223 25.7246L37.7926 25.796L74.604 25.8035L74.5957 61.2113C51.1656 61.3748 27.7334 61.4292 4.3012 61.3748L4.24121 59.5245C4.49564 55.7321 4.34464 51.855 4.35705 48.055L4.33016 25.7246H4.33223Z" fill="#ECEDEB"/>
<path d="M15.6514 37.0744C15.9844 35.4252 16.6174 33.8003 18.1874 32.7916C19.3582 32.0384 20.651 31.9238 22.0327 32.1192C21.2902 32.1793 20.955 32.0872 20.411 32.5737C20.1463 33.4209 20.4586 34.2981 20.4545 35.1622C18.5328 35.32 17.5399 35.6318 16.2595 37.0105C16.1168 37.1646 15.9761 37.3223 15.8396 37.4801L15.6514 37.0725V37.0744Z" fill="#A2993A"/>
<path d="M22.0326 32.1191C23.6295 32.523 24.8872 33.1786 25.7063 34.5366C26.0228 35.0588 26.2276 35.6768 26.391 36.2535L26.3248 37.651L26.1531 37.7675C26.0456 37.6717 25.9297 37.5759 25.8532 37.4538C25.6856 37.1833 25.6236 36.8997 25.3981 36.648C24.1777 35.2805 22.2229 35.2692 20.4543 35.1622C20.4605 34.2981 20.1461 33.419 20.4109 32.5737C20.9549 32.0872 21.29 32.1792 22.0326 32.1191Z" fill="#8D8129"/>
<path d="M37.6813 39.5741C44.0793 39.4051 50.5331 39.5553 56.9372 39.5516C60.7267 39.5478 64.8162 39.2492 68.5747 39.5572C69.2283 39.6117 69.3897 39.6305 69.9358 39.9667C70.0971 40.5021 70.0351 40.5885 69.8427 41.1238C64.1418 41.4394 58.2238 41.1708 52.5044 41.1745C47.9598 41.1783 43.0864 41.5089 38.5729 41.1257C38.1799 41.0919 37.9378 40.9904 37.6193 40.7857C37.4021 40.256 37.5221 40.1095 37.6834 39.576L37.6813 39.5741Z" fill="#C6C3BC"/>
<path d="M38.1959 44.9138C45.2889 44.7184 52.4336 44.8593 59.5348 44.8405C62.0563 44.833 67.54 44.4648 69.625 44.9307C69.9643 45.0058 69.9767 45.1711 70.1484 45.4228C70.0863 45.9788 69.9891 46.1854 69.5961 46.6156C65.4963 46.6156 39.5219 46.9143 37.8464 46.4409L37.6333 45.9976C37.745 45.3928 37.7036 45.3214 38.1959 44.9156V44.9138Z" fill="#C6C3BC"/>
<path d="M37.4182 34.5354C41.5925 34.4246 68.2185 34.1898 69.8216 34.6199C70.1008 35.1872 69.9374 35.7225 69.8402 36.3142L48.5779 36.303C45.2082 36.3048 41.5056 36.6129 38.1815 36.2898C37.6126 36.2335 37.5278 36.3105 37.1555 35.8897C37.11 35.3375 37.2155 35.0444 37.4182 34.5354Z" fill="#C6C3BC"/>
<path d="M46.4497 51.7516L61.8477 51.6821C63.8852 51.6708 66.293 51.3834 68.2891 51.6502C68.7793 51.7159 69.0896 51.9376 69.4454 52.2306C69.6564 52.7716 69.6874 52.7566 69.4537 53.2844C68.2974 54.017 60.8859 53.6263 59.0387 53.6244L44.2239 53.6037C41.8844 53.6018 39.4787 53.7521 37.1496 53.6075C36.4422 53.5643 35.7306 53.5492 35.2383 53.0289C35.3252 52.565 35.2217 52.7227 35.5506 52.394C35.8671 52.0784 36.1236 51.9526 36.6014 51.885C38.9782 51.5544 43.804 51.7854 46.4476 51.7478L46.4497 51.7516Z" fill="#C6C3BC"/>
<path d="M20.4547 35.1621C22.2253 35.2673 24.178 35.2804 25.3984 36.6479C25.6239 36.8996 25.686 37.1833 25.8535 37.4538C25.93 37.5759 26.0459 37.6698 26.1534 37.7675L26.3251 37.651L26.3913 36.2535C26.9395 40.2338 25.7604 40.8593 23.6712 44.0188C23.4499 44.355 23.3196 44.541 23.545 44.8941L23.1065 45.3637C21.5675 45.0932 20.0761 44.7307 18.5268 45.1158C18.6302 44.8378 18.7812 44.3775 18.6344 44.0901C18.382 43.598 17.7201 43.0476 17.356 42.6025C15.9287 40.8574 15.4282 39.2608 15.6516 37.0724L15.8398 37.4801C15.9763 37.3204 16.117 37.1645 16.2597 37.0105C17.5401 35.6317 18.533 35.3199 20.4547 35.1621Z" fill="#F7C56B"/>
<path d="M18.5268 45.1181C20.0782 44.7331 21.5696 45.0956 23.1065 45.3661L23.5451 44.8965C25.9714 45.7286 28.1868 46.7411 29.3245 49.0064C30.1374 50.6256 30.1581 52.2673 30.1043 54.0011C23.9919 53.9635 17.838 53.6799 11.7338 53.9523C11.6842 51.5667 11.7173 49.1868 13.6679 47.3516C14.9297 46.1644 16.661 45.5652 18.3862 45.1632L18.5248 45.1144L18.5268 45.1181Z" fill="#227447"/>
<path d="M18.5268 45.1168C20.0782 44.7318 21.5696 45.0943 23.1065 45.3648C22.4321 46.334 21.5116 47.2526 20.7297 48.1598C19.8713 47.1887 19.0998 46.2288 18.3882 45.1657L18.5268 45.1168Z" fill="#C6B8AA"/>
</svg>
