<svg width="60" height="80" viewBox="0 0 60 80" fill="none" xmlns="http://www.w3.org/2000/svg">
<g clip-path="url(#clip0_34_220)">
<path d="M0.335677 77.1081C-0.122233 73.6418 0.0998432 69.9093 0.0900168 66.4149L0.0821557 46.9598L0.0782251 19.2851C0.0762599 14.4138 -0.130095 9.42444 0.131288 4.56516C0.182385 3.61452 0.188281 2.64987 0.805379 1.87535C1.68779 0.776605 3.24233 0.218229 4.5964 0.150183C11.1565 -0.178039 18.3337 0.204219 24.9646 0.200216C32.1889 0.194212 39.5863 -0.206058 46.791 0.142177C47.5142 0.1762 47.7343 0.226234 48.263 0.734577C50.1811 2.6899 52.0324 4.71126 53.9603 6.65657C55.7271 8.43577 57.6688 10.1669 59.2391 12.1223C60.0939 12.9748 59.9289 13.7454 59.9426 14.9061C60.0782 27.8569 59.923 40.8356 59.9426 53.7904L59.9505 68.048C59.9505 71.05 60.0605 74.1081 59.809 77.1021C58.9482 78.381 58.1719 79.3496 56.6233 79.6999C55.5718 79.938 5.53777 80.2142 3.49978 79.7579C2.03564 79.4297 1.13555 78.3169 0.337642 77.1121L0.335677 77.1081Z" fill="#27C3C4"/>
<path d="M47.4516 2.24809C47.9901 3.26078 47.768 10.6338 47.8152 12.3269C50.1558 12.2609 57.6258 12.7272 59.2393 12.1228C60.0942 12.9753 59.9292 13.7459 59.9429 14.9066C60.0785 27.8574 59.9233 40.8361 59.9429 53.7909L59.9508 68.0485C59.9508 71.0505 60.0608 74.1086 59.8093 77.1026C58.9485 78.3815 58.1722 79.3501 56.6235 79.7004C53.7444 79.3862 50.6177 79.6203 47.7189 79.6263L29.8584 79.6643C29.8898 77.2407 29.8977 74.8151 29.882 72.3914L45.6534 72.4555C48.617 72.4655 51.8047 72.7317 54.7329 72.3334C54.6209 65.0385 54.729 57.7275 54.7251 50.4326V16.0814L45.3507 16.1115C45.4136 13.1495 45.2367 10.1714 45.4332 7.21545C45.504 7.18543 45.5806 7.16942 45.6455 7.12739C46.6419 6.51497 47.1568 3.42289 47.4536 2.24609L47.4516 2.24809Z" fill="#5ABCC4"/>
<path d="M5.96461 6.91363C10.3727 6.81556 44.3485 6.61943 45.4314 7.21583C45.2348 10.1718 45.4117 13.1498 45.3488 16.1118L54.7232 16.0818V50.429C54.7291 57.7239 54.6191 65.0369 54.7311 72.3298C50.3701 71.8134 43.7904 72.2057 39.2093 72.2037L5.90566 72.1917C5.64624 65.0889 5.85259 57.9 5.85456 50.7912L5.96461 6.91363Z" fill="#E0EBED"/>
<path d="M13.582 41.8839L34.1782 41.8339C38.2207 41.8159 42.3125 41.6638 46.3491 41.8559C46.7619 42.2202 46.6813 42.6264 46.7481 43.1608C43.415 43.1608 14.6826 43.483 13.9633 43.1788C13.8375 43.1248 13.755 43.0007 13.6508 42.9126L13.584 41.8839H13.582Z" fill="#64A7BD"/>
<path d="M13.5292 53.9987C19.6746 53.8045 25.8731 53.9506 32.0244 53.9306C36.857 53.9166 41.8194 53.6624 46.6382 53.9767C47.0313 54.4049 46.8957 54.8072 46.8977 55.3736L23.8292 55.4276C20.7575 55.4356 16.5498 55.8419 13.6156 55.3156C13.3955 54.8252 13.4899 54.521 13.5292 53.9967V53.9987Z" fill="#2798AD"/>
<path d="M13.5586 47.8898L35.0391 47.8558C38.8223 47.8438 42.7764 47.5936 46.5439 47.9159C46.8701 48.3662 46.7856 48.8145 46.8111 49.3628L25.9438 49.3708C21.9425 49.3808 17.8704 49.573 13.8789 49.3168C13.4761 48.8825 13.5881 48.4702 13.5586 47.8918V47.8898Z" fill="#64A7BD"/>
<path d="M13.5095 60.1489L34.9743 60.1069C38.8164 60.0949 42.802 59.8647 46.6303 60.1669C46.9585 60.6192 46.874 61.0595 46.9015 61.6099L25.9536 61.6159C21.913 61.6259 17.7938 61.816 13.765 61.5618C13.3935 61.1356 13.5193 60.7013 13.5114 60.1469L13.5095 60.1489Z" fill="#2798AD"/>
<path d="M13.46 16.9294L34.742 16.9054C38.6391 16.8934 42.6856 16.6533 46.5592 16.9775C46.9994 17.3517 46.9012 17.744 46.9621 18.3044C42.0214 18.7267 36.4616 18.3944 31.458 18.4164C25.6309 18.4405 19.5838 18.8027 13.7803 18.4044C13.4678 17.9321 13.5052 17.4858 13.46 16.9314V16.9294Z" fill="#64A7BD"/>
<path d="M36.4637 23.2906C38.2658 23.2886 45.7516 22.8203 46.8069 23.5828C46.8246 24.0651 46.8148 24.0531 46.522 24.4354C45.9737 24.6996 45.5157 24.8116 44.9104 24.8597C43.0886 25.0058 41.1489 24.7916 39.3114 24.7976L24.3988 24.8096C21.785 24.7796 19.1751 24.8737 16.5632 24.8737C15.5079 24.8737 14.3071 24.9517 13.5229 24.1532L13.5642 23.6509C14.4761 22.9564 33.6867 23.2966 36.4656 23.2906H36.4637Z" fill="#64A7BD"/>
<path d="M13.478 35.6157H34.4889C38.4568 35.6137 42.4954 35.4576 46.4535 35.6897C46.8819 36.1 46.8092 36.5423 46.8839 37.1187L26.2563 37.1647C22.1941 37.1787 17.9255 37.4589 13.8888 37.1047C13.4741 36.6444 13.5429 36.2241 13.4761 35.6137L13.478 35.6157Z" fill="#64A7BD"/>
<path d="M13.6113 29.4291L35.2294 29.4391C38.9988 29.4291 42.9569 29.1249 46.6929 29.5051C46.9661 29.9695 46.8423 30.4358 46.7813 30.9461L27.1049 31.0122C22.7204 31.0262 18.2907 31.1723 13.912 30.9941C13.5386 30.6079 13.6447 29.9635 13.6133 29.4291H13.6113Z" fill="#64A7BD"/>
</g>
<defs>
<clipPath id="clip0_34_220">
<rect width="60" height="80" fill="white"/>
</clipPath>
</defs>
</svg>
