<svg width="9" height="17" viewBox="0 0 9 17" fill="none" xmlns="http://www.w3.org/2000/svg">
<path d="M6.02786 4.12096C6.01753 4.72422 6.02569 5.32694 6.02569 5.95142C6.11164 5.95522 6.1829 5.96175 6.2547 5.96175C6.96023 5.9623 7.6663 5.96121 8.37237 5.9623C8.79993 5.96338 8.90547 6.06837 8.90601 6.48831C8.9071 7.29611 8.90764 8.1039 8.90601 8.9117C8.90492 9.28595 8.8119 9.3806 8.43547 9.38223C7.7158 9.3855 6.99667 9.38332 6.277 9.38332H6.02678V16.01C6.02678 16.6089 5.96803 16.6665 5.35933 16.6665C4.58526 16.6665 3.81173 16.6671 3.03821 16.666C2.60847 16.6654 2.50892 16.567 2.50838 16.1405C2.50784 13.9891 2.50838 11.8372 2.50838 9.68522V9.42085C2.4257 9.41596 2.35444 9.40834 2.28318 9.40834C1.69297 9.40726 1.10222 9.40889 0.512011 9.40726C0.102402 9.40562 0.00339966 9.31043 0.00231172 8.90463C-0.000952096 8.11043 -0.000407828 7.31624 0.00176805 6.52204C0.00285599 6.09992 0.0996827 6.00527 0.516907 6.00473C1.10059 6.00418 1.68427 6.00473 2.26795 6.00473H2.50838C2.50838 5.90409 2.50729 5.82467 2.50838 5.74525C2.52252 4.97173 2.49478 4.19494 2.56006 3.42631C2.72542 1.49141 4.21318 0.0906864 6.15733 0.0177945C6.97056 -0.0126678 7.78543 0.00473919 8.6003 0.00691507C8.86956 0.00800301 8.98488 0.124412 8.98652 0.395309C8.99087 1.2031 8.99087 2.0109 8.98652 2.81869C8.98488 3.0934 8.87174 3.20219 8.57691 3.20926C8.0275 3.22232 7.47754 3.22286 6.92813 3.23102C6.2906 3.24081 6.03929 3.48179 6.02786 4.12096Z" fill="#003875"/>
</svg>
