<svg width="19" height="13" viewBox="0 0 19 13" fill="none" xmlns="http://www.w3.org/2000/svg">
<path d="M18.0351 2.39589C17.8346 1.28842 17.1578 0.577498 16.0996 0.383949C15.6629 0.303781 15.2183 0.245372 14.7748 0.22533C12.894 0.140295 11.0123 0.0735831 9.13094 0C9.13037 0.0194695 9.12979 0.0389389 9.12922 0.0584084C8.6966 0.0584084 8.26369 0.0521095 7.83135 0.0595537C6.03759 0.0896168 4.24353 0.109372 2.45922 0.332126C1.34946 0.470416 0.5807 1.13037 0.349643 2.22753C0.220515 2.84025 0.150082 3.46843 0.0991174 4.09345C-0.00996876 5.43026 -0.0368824 6.77136 0.0581743 8.11017C0.117155 8.9382 0.192743 9.7688 0.33046 10.5868C0.511125 11.6582 1.24953 12.3665 2.28914 12.5209C2.90472 12.6122 3.52631 12.6901 4.14762 12.7104C6.05477 12.7722 7.96306 12.8295 9.87106 12.839C11.7731 12.8487 13.6759 12.8035 15.5705 12.6045C16.0589 12.5529 16.5402 12.4751 16.9671 12.2016C17.6732 11.7495 17.9944 11.0701 18.0714 10.2721C18.1754 9.19244 18.2807 8.11017 18.3162 7.02704C18.3675 5.47721 18.3119 3.92796 18.0351 2.39589ZM7.35378 9.185V3.71208C8.94226 4.62514 10.5141 5.52875 12.1138 6.4484C10.5164 7.3669 8.94483 8.27022 7.35378 9.185Z" fill="#FF3B30"/>
</svg>
